<svg width="80" height="80" viewBox="0 0 80 80" fill="none" xmlns="http://www.w3.org/2000/svg">
  <defs>
    <linearGradient id="leafGradient3" x1="0%" y1="0%" x2="100%" y2="100%">
      <stop offset="0%" stop-color="#10B981"/>
      <stop offset="100%" stop-color="#059669"/>
    </linearGradient>
    <linearGradient id="shieldGradient" x1="0%" y1="0%" x2="100%" y2="100%">
      <stop offset="0%" stop-color="#34D399"/>
      <stop offset="100%" stop-color="#10B981"/>
    </linearGradient>
  </defs>
  
  <!-- Background circle -->
  <circle cx="40" cy="40" r="38" fill="#F0FDF4" stroke="url(#leafGradient3)" stroke-width="2"/>
  
  <!-- Shield with leaf pattern -->
  <g transform="translate(40, 40)">
    <!-- Shield shape -->
    <path d="M0 -22 C-12 -22, -18 -16, -18 -8 L-18 8 C-18 16, 0 24, 0 24 C0 24, 18 16, 18 8 L18 -8 C18 -16, 12 -22, 0 -22 Z" 
          fill="url(#shieldGradient)" stroke="url(#leafGradient3)" stroke-width="1"/>
    
    <!-- Checkmark in center -->
    <path d="M-6 0 L-2 4 L8 -6" stroke="white" stroke-width="3" fill="none" stroke-linecap="round" stroke-linejoin="round"/>
    
    <!-- Decorative leaves around shield -->
    <!-- Top left leaf -->
    <g transform="translate(-22, -18) scale(0.5)">
      <path d="M0 -8 C-4 -12, 4 -12, 0 -8 C-2 -6, 2 -6, 0 -8 Z" fill="url(#leafGradient3)"/>
      <rect x="-1" y="-6" width="2" height="8" fill="url(#leafGradient3)" rx="1"/>
    </g>
    
    <!-- Top right leaf -->
    <g transform="translate(22, -18) scale(0.5)">
      <path d="M0 -8 C-4 -12, 4 -12, 0 -8 C-2 -6, 2 -6, 0 -8 Z" fill="url(#leafGradient3)"/>
      <rect x="-1" y="-6" width="2" height="8" fill="url(#leafGradient3)" rx="1"/>
    </g>
    
    <!-- Bottom left leaf -->
    <g transform="translate(-22, 18) scale(0.5) rotate(180)">
      <path d="M0 -8 C-4 -12, 4 -12, 0 -8 C-2 -6, 2 -6, 0 -8 Z" fill="url(#leafGradient3)"/>
      <rect x="-1" y="-6" width="2" height="8" fill="url(#leafGradient3)" rx="1"/>
    </g>
    
    <!-- Bottom right leaf -->
    <g transform="translate(22, 18) scale(0.5) rotate(180)">
      <path d="M0 -8 C-4 -12, 4 -12, 0 -8 C-2 -6, 2 -6, 0 -8 Z" fill="url(#leafGradient3)"/>
      <rect x="-1" y="-6" width="2" height="8" fill="url(#leafGradient3)" rx="1"/>
    </g>
  </g>
</svg>